Coordinates
version=1
nRows=8
nColumns=34
inDegrees=yes

Units are S.I. units (second, meters, Newtons, ...)
If the header above contains a line with 'inDegrees', this indicates whether rotational values are in degrees (yes) or radians (no).

endheader
time	pelvis_tilt	pelvis_list	pelvis_rotation	pelvis_tx	pelvis_ty	pelvis_tz	hip_flexion_r	hip_adduction_r	hip_rotation_r	knee_angle_r	ankle_angle_r	subtalar_angle_r	mtp_angle_r	hip_flexion_l	hip_adduction_l	hip_rotation_l	knee_angle_l	ankle_angle_l	subtalar_angle_l	mtp_angle_l	lumbar_extension	lumbar_bending	lumbar_rotation	arm_flex_r	arm_add_r	arm_rot_r	elbow_flex_r	pro_sup_r	arm_flex_l	arm_add_l	arm_rot_l	elbow_flex_l	pro_sup_l
      5.88333330	    -29.15337083	      1.91186294	     -3.87920064	      0.41476694	      0.51845187	     -0.18754961	    109.11278505	     -6.88240177	      7.18391297	    106.41759237	     26.67529000	     -7.62827189	      0.00000000	    109.61225243	     -7.48513546	      6.16915978	    107.27042219	     24.91594340	     -7.38990592	      0.00000000	    -35.23817015	      2.01683118	     -5.12215185	    210.01194024	    -28.18094193	     65.24731895	     17.15846220	     60.74588071	    215.03594996	    -26.61082587	     72.93352305	     19.01506987	     62.52365895
      5.90000000	    -28.94616592	      1.98770767	     -3.72448262	      0.41592633	      0.52315723	     -0.18795993	    108.28415745	     -7.07426385	      7.19269324	    105.80958389	     26.67834455	     -7.62215448	      0.00000000	    108.70182345	     -7.35012169	      5.86025845	    106.70986779	     24.55704402	     -8.19671285	      0.00000000	    -35.07826899	      1.83298429	     -4.89894581	    210.48269447	    -28.26487401	     65.46422404	     17.33284264	     60.95547526	    214.73910282	    -26.42713672	     73.29954303	     18.85679681	     62.76870860
      5.91666670	    -28.90627476	      2.03205295	     -3.61802808	      0.41658720	      0.52932082	     -0.18655300	    107.49391500	     -7.08398379	      7.05363841	    104.98966819	     26.49765210	     -7.75340051	      0.00000000	    107.85010603	     -7.37100853	      5.57277895	    105.82412136	     24.11481283	     -8.34922033	      0.00000000	    -34.97549636	      1.70166352	     -4.63847475	    211.36656622	    -28.40390791	     65.74148378	     17.60758114	     61.18441339	    215.00545218	    -26.35395253	     73.48012799	     18.63190895	     62.96701563
      5.93333330	    -28.97851737	      2.01080769	     -3.56710488	      0.41282448	      0.53049258	     -0.18716430	    107.11343194	     -6.99242927	      7.03556214	    104.28882257	     26.44868756	     -7.72980917	      0.00000000	    107.48845183	     -7.32821068	      5.48725777	    105.10480276	     24.10608609	     -8.34966872	      0.00000000	    -34.51445381	      1.75493555	     -4.61842420	    211.44349998	    -28.33583195	     65.76468834	     17.62357213	     61.20038312	    214.93477818	    -26.23484712	     73.50430164	     18.62614842	     62.98037698
      5.95000000	    -28.58806134	      2.14667338	     -3.52579411	      0.41582912	      0.53565745	     -0.18730542	    106.09390309	     -6.90126935	      7.16109135	    103.66425291	     26.30514726	     -8.01463270	      0.00000000	    106.51639686	     -7.29021198	      5.18967974	    104.43979905	     23.26094298	     -9.48418070	      0.00000000	    -34.51705377	      1.37329513	     -3.86110657	    212.37155023	    -28.33391193	     66.57794872	     17.80824463	     61.63638222	    213.95959073	    -26.10160761	     73.71456740	     17.84783129	     63.22096478
      5.96666670	    -28.59489733	      2.15901089	     -3.23940235	      0.41872813	      0.53701031	     -0.18846084	    105.56600972	     -7.10242471	      7.24523342	    103.22458806	     26.67681934	     -8.13168839	      0.00000000	    106.14247762	     -7.07132301	      4.98600518	    104.22002851	     23.38216257	     -9.36278303	      0.00000000	    -33.91868963	      1.45105838	     -3.89771376	    212.58176051	    -28.35590043	     66.80703006	     17.73373729	     61.73999556	    213.66132500	    -25.97437620	     73.75500182	     17.72648572	     63.27344203
      5.98333330	    -28.59738461	      2.12626558	     -3.17839019	      0.41553398	      0.54086001	     -0.18752909	    105.16874221	     -6.96771531	      7.27411787	    102.71146613	     26.64959446	     -8.08082791	      0.00000000	    105.80468066	     -6.99220394	      4.85624636	    103.78365941	     23.38070138	     -9.33224509	      0.00000000	    -33.41408783	      1.47973061	     -3.91547320	    212.67272416	    -28.29597934	     66.83904551	     17.72877392	     61.75613444	    213.62220913	    -25.86796339	     73.76575996	     17.72759021	     63.28330147
      6.00000000	    -28.74397909	      2.10024071	     -3.13748378	      0.42165381	      0.54705883	     -0.18853563	    104.55324871	     -6.86838874	      7.28353080	    102.12972527	     26.66079338	     -8.06638029	      0.00000000	    105.23117911	     -6.98472153	      4.66252793	    103.15114742	     23.38894584	     -9.32873073	      0.00000000	    -32.74208700	      1.52398667	     -3.91677363	    212.84964667	    -28.34115911	     66.85153249	     17.69831907	     61.76737495	    213.57802971	    -25.82624602	     73.78049344	     17.71964545	     63.29357798
